<svg width="24.400024" height="22.554077" viewBox="0 0 24.4 22.5541" fill="none" xmlns="http://www.w3.org/2000/svg" xmlns:xlink="http://www.w3.org/1999/xlink">
	<desc>
			Created with Pixso.
	</desc>
	<defs/>
	<path id="Vector" d="M10.81 17.27C10.81 17.39 10.76 17.51 10.68 17.6C10.59 17.69 10.47 17.73 10.35 17.73L8.96 17.73L8.96 21.89C8.96 22.01 8.92 22.13 8.83 22.21C8.74 22.3 8.63 22.35 8.5 22.35C8.38 22.35 8.26 22.3 8.18 22.21C8.09 22.13 8.04 22.01 8.04 21.89L8.04 17.73L6.66 17.73C6.53 17.73 6.42 17.69 6.33 17.6C6.24 17.51 6.2 17.39 6.2 17.27C6.2 17.15 6.24 17.03 6.33 16.95C6.42 16.86 6.53 16.81 6.66 16.81L10.35 16.81C10.47 16.81 10.59 16.86 10.68 16.95C10.76 17.03 10.81 17.15 10.81 17.27ZM3.89 16.81C3.76 16.81 3.65 16.86 3.56 16.95C3.47 17.03 3.43 17.15 3.43 17.27L3.43 19.12L1.12 19.12L1.12 17.27C1.12 17.15 1.07 17.03 0.98 16.95C0.9 16.86 0.78 16.81 0.66 16.81C0.53 16.81 0.42 16.86 0.33 16.95C0.24 17.03 0.2 17.15 0.2 17.27L0.2 21.89C0.2 22.01 0.24 22.13 0.33 22.21C0.42 22.3 0.53 22.35 0.66 22.35C0.78 22.35 0.9 22.3 0.98 22.21C1.07 22.13 1.12 22.01 1.12 21.89L1.12 20.04L3.43 20.04L3.43 21.89C3.43 22.01 3.47 22.13 3.56 22.21C3.65 22.3 3.76 22.35 3.89 22.35C4.01 22.35 4.13 22.3 4.21 22.21C4.3 22.13 4.35 22.01 4.35 21.89L4.35 17.27C4.35 17.15 4.3 17.03 4.21 16.95C4.13 16.86 4.01 16.81 3.89 16.81ZM23.73 21.43L21.43 21.43L21.43 17.27C21.43 17.15 21.38 17.03 21.29 16.95C21.2 16.86 21.09 16.81 20.96 16.81C20.84 16.81 20.72 16.86 20.64 16.95C20.55 17.03 20.5 17.15 20.5 17.27L20.5 21.89C20.5 22.01 20.55 22.13 20.64 22.21C20.72 22.3 20.84 22.35 20.96 22.35L23.73 22.35C23.86 22.35 23.97 22.3 24.06 22.21C24.15 22.13 24.2 22.01 24.2 21.89C24.2 21.77 24.15 21.65 24.06 21.56C23.97 21.47 23.86 21.43 23.73 21.43ZM17.87 16.83C17.78 16.81 17.68 16.81 17.59 16.84C17.49 16.87 17.41 16.93 17.35 17.01L15.43 19.71L13.5 17.01C13.44 16.93 13.36 16.87 13.27 16.84C13.17 16.81 13.07 16.81 12.98 16.83C12.89 16.86 12.8 16.92 12.75 17C12.69 17.08 12.66 17.17 12.66 17.27L12.66 21.89C12.66 22.01 12.71 22.13 12.79 22.21C12.88 22.3 13 22.35 13.12 22.35C13.24 22.35 13.36 22.3 13.44 22.21C13.53 22.13 13.58 22.01 13.58 21.89L13.58 18.71L15.05 20.77C15.09 20.83 15.15 20.88 15.21 20.91C15.28 20.94 15.35 20.96 15.43 20.96C15.5 20.96 15.57 20.94 15.64 20.91C15.71 20.88 15.76 20.83 15.81 20.77L17.27 18.71L17.27 21.89C17.27 22.01 17.32 22.13 17.41 22.21C17.49 22.3 17.61 22.35 17.73 22.35C17.86 22.35 17.97 22.3 18.06 22.21C18.15 22.13 18.2 22.01 18.2 21.89L18.2 17.27C18.19 17.17 18.16 17.08 18.11 17C18.05 16.92 17.97 16.86 17.87 16.83ZM20.5 13.12C20.38 13.12 20.26 13.07 20.18 12.98C20.09 12.9 20.04 12.78 20.04 12.66L20.04 7.58L14.04 7.58C13.92 7.58 13.8 7.53 13.71 7.44C13.63 7.36 13.58 7.24 13.58 7.12L13.58 1.12L2.96 1.12C2.84 1.12 2.72 1.17 2.64 1.25C2.55 1.34 2.5 1.46 2.5 1.58L2.5 12.66C2.5 12.78 2.45 12.9 2.37 12.98C2.28 13.07 2.16 13.12 2.04 13.12C1.92 13.12 1.8 13.07 1.71 12.98C1.63 12.9 1.58 12.78 1.58 12.66L1.58 1.58C1.58 1.21 1.73 0.86 1.99 0.6C2.24 0.34 2.6 0.2 2.96 0.2L14.04 0.2C14.1 0.19 14.16 0.2 14.22 0.23C14.27 0.25 14.32 0.29 14.36 0.33L20.83 6.78C20.91 6.87 20.96 6.99 20.96 7.12L20.96 12.66C20.96 12.78 20.92 12.9 20.83 12.98C20.74 13.07 20.63 13.12 20.5 13.12ZM14.5 6.66L19.38 6.66L14.5 1.78L14.5 6.66Z" fill="#FFFFFF" fill-opacity="1.000000" fill-rule="nonzero"/>
	<path id="Vector" d="M19.89 12.91Q19.94 13.03 20.03 13.12Q20.13 13.22 20.25 13.27Q20.37 13.32 20.5 13.32Q20.64 13.32 20.76 13.27Q20.87 13.22 20.97 13.12Q21.07 13.03 21.12 12.91Q21.16 12.79 21.16 12.66L21.16 7.11L21.16 7.11Q21.16 6.98 21.11 6.86Q21.06 6.75 20.97 6.65L20.97 6.64L14.51 0.2Q14.47 0.15 14.41 0.11Q14.36 0.07 14.3 0.04Q14.23 0.02 14.17 0.01Q14.1 -0.01 14.04 0L2.96 0Q2.81 0 2.66 0.03Q2.5 0.06 2.36 0.12Q2.21 0.18 2.08 0.26Q1.96 0.35 1.84 0.46Q1.73 0.57 1.65 0.7Q1.56 0.83 1.5 0.97Q1.44 1.12 1.41 1.27Q1.38 1.42 1.38 1.58L1.38 12.66Q1.38 12.79 1.43 12.91Q1.48 13.03 1.57 13.12Q1.67 13.22 1.79 13.27Q1.9 13.32 2.04 13.32Q2.18 13.32 2.3 13.27Q2.41 13.22 2.51 13.12Q2.61 13.03 2.65 12.91Q2.7 12.79 2.7 12.66L2.7 1.58Q2.7 1.53 2.72 1.48Q2.74 1.43 2.78 1.39Q2.82 1.36 2.86 1.34Q2.91 1.32 2.96 1.32L13.38 1.32L13.38 7.12Q13.38 7.26 13.43 7.37Q13.48 7.49 13.57 7.59Q13.67 7.68 13.79 7.73Q13.9 7.78 14.04 7.78L19.84 7.78L19.84 12.66Q19.84 12.79 19.89 12.91ZM20.04 7.78L20.04 12.66C20.04 12.78 20.09 12.9 20.18 12.98C20.26 13.07 20.38 13.12 20.5 13.12C20.63 13.12 20.74 13.07 20.83 12.98C20.92 12.9 20.96 12.78 20.96 12.66L20.96 7.12C20.96 6.99 20.91 6.87 20.83 6.78L14.36 0.33C14.32 0.29 14.27 0.25 14.22 0.23C14.16 0.2 14.1 0.19 14.04 0.2L2.96 0.2C2.6 0.2 2.24 0.34 1.99 0.6C1.73 0.86 1.58 1.21 1.58 1.58L1.58 12.66C1.58 12.78 1.63 12.9 1.71 12.98C1.8 13.07 1.92 13.12 2.04 13.12C2.16 13.12 2.28 13.07 2.37 12.98C2.45 12.9 2.5 12.78 2.5 12.66L2.5 1.58C2.5 1.46 2.55 1.34 2.64 1.25C2.72 1.17 2.84 1.12 2.96 1.12L13.58 1.12L13.58 1.32L13.58 7.12C13.58 7.24 13.63 7.36 13.71 7.44C13.8 7.53 13.92 7.58 14.04 7.58L20.04 7.58L20.04 7.78ZM19.18 6.46L19.38 6.66L14.5 6.66L14.5 1.78L19.18 6.46ZM18.9 6.46L14.7 2.26L14.7 6.46L18.9 6.46ZM3.63 16.66Q3.52 16.71 3.42 16.8Q3.32 16.9 3.27 17.02Q3.23 17.14 3.23 17.27L3.23 18.92L1.32 18.92L1.32 17.27Q1.32 17.14 1.27 17.02Q1.22 16.9 1.12 16.8Q1.03 16.71 0.91 16.66Q0.79 16.61 0.66 16.61Q0.52 16.61 0.4 16.66Q0.29 16.71 0.19 16.8Q0.09 16.9 0.04 17.02Q0 17.14 0 17.27L0 21.89Q0 22.02 0.04 22.14Q0.09 22.26 0.19 22.36Q0.29 22.45 0.4 22.5Q0.52 22.55 0.66 22.55Q0.79 22.55 0.91 22.5Q1.03 22.45 1.12 22.36Q1.22 22.26 1.27 22.14Q1.32 22.02 1.32 21.89L1.32 20.24L3.23 20.24L3.23 21.89Q3.23 22.02 3.27 22.14Q3.32 22.26 3.42 22.36Q3.52 22.45 3.63 22.5Q3.75 22.55 3.89 22.55Q4.02 22.55 4.14 22.5Q4.26 22.45 4.36 22.36Q4.45 22.26 4.5 22.14Q4.55 22.02 4.55 21.89L4.55 17.27Q4.55 17.14 4.5 17.02Q4.45 16.9 4.36 16.8Q4.26 16.71 4.14 16.66Q4.02 16.61 3.89 16.61Q3.75 16.61 3.63 16.66ZM3.23 20.04L3.43 20.04L3.43 20.24L3.43 21.89C3.43 22.01 3.47 22.13 3.56 22.21C3.65 22.3 3.76 22.35 3.89 22.35C4.01 22.35 4.13 22.3 4.21 22.21C4.3 22.13 4.35 22.01 4.35 21.89L4.35 17.27C4.35 17.15 4.3 17.03 4.21 16.95C4.13 16.86 4.01 16.81 3.89 16.81C3.76 16.81 3.65 16.86 3.56 16.95C3.47 17.03 3.43 17.15 3.43 17.27L3.43 19.12L1.12 19.12L1.12 17.27C1.12 17.15 1.07 17.03 0.98 16.95C0.9 16.86 0.78 16.81 0.66 16.81C0.53 16.81 0.42 16.86 0.33 16.95C0.24 17.03 0.2 17.15 0.2 17.27L0.2 21.89C0.2 22.01 0.24 22.13 0.33 22.21C0.42 22.3 0.53 22.35 0.66 22.35C0.78 22.35 0.9 22.3 0.98 22.21C1.07 22.13 1.12 22.01 1.12 21.89L1.12 20.04L1.32 20.04L3.23 20.04ZM10.6 17.89Q10.72 17.84 10.82 17.74Q10.91 17.64 10.96 17.53Q11.01 17.41 11.01 17.27Q11.01 17.14 10.96 17.02Q10.91 16.9 10.82 16.8Q10.72 16.71 10.6 16.66Q10.49 16.61 10.35 16.61L6.66 16.61Q6.52 16.61 6.4 16.66Q6.29 16.71 6.19 16.8Q6.09 16.9 6.04 17.02Q6 17.14 6 17.27Q6 17.41 6.04 17.53Q6.09 17.64 6.19 17.74Q6.29 17.84 6.4 17.89Q6.52 17.93 6.66 17.93L7.84 17.93L7.84 21.89Q7.84 22.02 7.89 22.14Q7.94 22.26 8.03 22.36Q8.13 22.45 8.25 22.5Q8.37 22.55 8.5 22.55Q8.64 22.55 8.76 22.5Q8.87 22.45 8.97 22.36Q9.07 22.26 9.12 22.14Q9.16 22.02 9.16 21.89L9.16 17.93L10.35 17.93Q10.49 17.93 10.6 17.89ZM8.96 17.93L8.96 17.73L10.35 17.73C10.47 17.73 10.59 17.69 10.68 17.6C10.76 17.51 10.81 17.39 10.81 17.27C10.81 17.15 10.76 17.03 10.68 16.95C10.59 16.86 10.47 16.81 10.35 16.81L6.66 16.81C6.53 16.81 6.42 16.86 6.33 16.95C6.24 17.03 6.2 17.15 6.2 17.27C6.2 17.39 6.24 17.51 6.33 17.6C6.42 17.69 6.53 17.73 6.66 17.73L8.04 17.73L8.04 21.89C8.04 22.01 8.09 22.13 8.18 22.21C8.26 22.3 8.38 22.35 8.5 22.35C8.63 22.35 8.74 22.3 8.83 22.21C8.92 22.13 8.96 22.01 8.96 21.89L8.96 17.93ZM21.43 21.23L21.43 21.43L23.73 21.43C23.86 21.43 23.97 21.47 24.06 21.56C24.15 21.65 24.2 21.77 24.2 21.89C24.2 22.01 24.15 22.13 24.06 22.21C23.97 22.3 23.86 22.35 23.73 22.35L20.96 22.35C20.84 22.35 20.72 22.3 20.64 22.21C20.55 22.13 20.5 22.01 20.5 21.89L20.5 17.27C20.5 17.15 20.55 17.03 20.64 16.95C20.72 16.86 20.84 16.81 20.96 16.81C21.09 16.81 21.2 16.86 21.29 16.95C21.38 17.03 21.43 17.15 21.43 17.27L21.43 21.23ZM21.63 21.23L21.63 17.27Q21.63 17.14 21.58 17.02Q21.53 16.9 21.43 16.8Q21.34 16.71 21.22 16.66Q21.1 16.61 20.96 16.61Q20.83 16.61 20.71 16.66Q20.59 16.71 20.5 16.8Q20.4 16.9 20.35 17.02Q20.3 17.14 20.3 17.27L20.3 21.89Q20.3 22.02 20.35 22.14Q20.4 22.26 20.5 22.36Q20.59 22.45 20.71 22.5Q20.83 22.55 20.96 22.55L23.73 22.55Q23.87 22.55 23.99 22.5Q24.1 22.45 24.2 22.36Q24.3 22.26 24.35 22.14Q24.4 22.02 24.4 21.89Q24.4 21.75 24.35 21.63Q24.3 21.52 24.2 21.42Q24.1 21.32 23.99 21.27Q23.87 21.23 23.73 21.23L21.63 21.23ZM17.72 16.61Q17.62 16.62 17.52 16.65Q17.42 16.68 17.34 16.74Q17.26 16.8 17.19 16.89L17.19 16.89L15.43 19.36L13.66 16.89L13.66 16.89Q13.59 16.8 13.51 16.74Q13.43 16.68 13.33 16.65Q13.23 16.62 13.13 16.61Q13.03 16.61 12.92 16.64L12.92 16.64L12.92 16.64Q12.82 16.68 12.73 16.74Q12.65 16.79 12.59 16.88Q12.52 16.97 12.49 17.07Q12.46 17.16 12.46 17.27L12.46 21.89Q12.46 22.02 12.51 22.14Q12.55 22.26 12.65 22.36Q12.75 22.45 12.86 22.5Q12.98 22.55 13.12 22.55Q13.26 22.55 13.37 22.5Q13.49 22.45 13.59 22.36Q13.68 22.26 13.73 22.14Q13.78 22.02 13.78 21.89L13.78 19.34L14.88 20.88Q14.94 20.96 15.01 21.02Q15.06 21.06 15.12 21.09Q15.19 21.12 15.27 21.14Q15.35 21.16 15.43 21.16Q15.51 21.16 15.58 21.14Q15.66 21.12 15.73 21.09Q15.8 21.05 15.86 21Q15.92 20.95 15.97 20.89L17.07 19.34L17.07 21.89Q17.07 22.02 17.12 22.14Q17.17 22.26 17.27 22.36Q17.36 22.45 17.48 22.5Q17.6 22.55 17.73 22.55Q17.87 22.55 17.99 22.5Q18.1 22.45 18.2 22.36Q18.3 22.26 18.35 22.14Q18.4 22.02 18.4 21.89L18.4 17.27Q18.39 17.16 18.36 17.06Q18.33 16.97 18.27 16.88Q18.2 16.79 18.12 16.74Q18.03 16.68 17.93 16.64L17.93 16.64L17.93 16.64Q17.83 16.61 17.72 16.61ZM17.07 18.99L17.27 18.71L17.27 21.89C17.27 22.01 17.32 22.13 17.41 22.21C17.49 22.3 17.61 22.35 17.73 22.35C17.86 22.35 17.97 22.3 18.06 22.21C18.15 22.13 18.2 22.01 18.2 21.89L18.2 17.27C18.19 17.17 18.16 17.08 18.11 17C18.05 16.92 17.97 16.86 17.87 16.83C17.78 16.81 17.68 16.81 17.59 16.84C17.49 16.87 17.41 16.93 17.35 17.01L15.55 19.53L15.43 19.71L15.3 19.53L13.5 17.01C13.44 16.93 13.36 16.87 13.27 16.84C13.17 16.81 13.07 16.81 12.98 16.83C12.89 16.86 12.8 16.92 12.75 17C12.69 17.08 12.66 17.17 12.66 17.27L12.66 21.89C12.66 22.01 12.71 22.13 12.79 22.21C12.88 22.3 13 22.35 13.12 22.35C13.24 22.35 13.36 22.3 13.44 22.21C13.53 22.13 13.58 22.01 13.58 21.89L13.58 18.71L13.78 18.99L15.05 20.77C15.09 20.83 15.15 20.88 15.21 20.91C15.28 20.94 15.35 20.96 15.43 20.96C15.5 20.96 15.57 20.94 15.64 20.91C15.71 20.88 15.76 20.83 15.81 20.77L17.07 18.99Z" fill="#FFFFFF" fill-opacity="1.000000" fill-rule="evenodd"/>
</svg>
