<svg width="22.500000" height="24.000000" viewBox="0 0 22.5 24" fill="none" xmlns="http://www.w3.org/2000/svg" xmlns:xlink="http://www.w3.org/1999/xlink">
	<desc>
			Created with Pixso.
	</desc>
	<defs/>
	<path id="Vector" d="M4.5 3C4.5 2.2 4.81 1.44 5.37 0.87C5.94 0.31 6.7 0 7.5 0L14.37 0C14.97 0 15.54 0.23 15.96 0.66L21.84 6.53C22.26 6.95 22.49 7.52 22.5 8.12L22.5 21C22.5 21.79 22.18 22.55 21.62 23.12C21.05 23.68 20.29 24 19.5 24L11.25 24C11.57 23.56 11.81 23.05 11.92 22.5L19.5 22.5C19.89 22.5 20.27 22.34 20.56 22.06C20.84 21.77 21 21.39 21 21L21 9L15.75 9C15.15 9 14.58 8.76 14.15 8.34C13.73 7.91 13.5 7.34 13.5 6.75L13.5 1.5L7.5 1.5C7.1 1.5 6.72 1.65 6.43 1.93C6.15 2.22 6 2.6 6 3L6 14.25C5.87 14.34 5.76 14.44 5.65 14.54C5.38 14.12 4.97 13.79 4.5 13.62L4.5 3ZM15.75 7.5L20.68 7.5L15 1.81L15 6.75C15 6.94 15.07 7.13 15.21 7.28C15.36 7.42 15.55 7.5 15.75 7.5ZM3.75 15C3.55 15 3.36 15.07 3.21 15.21C3.07 15.36 3 15.55 3 15.75L3 21.75C3 21.94 2.92 22.13 2.78 22.28C2.63 22.42 2.44 22.5 2.25 22.5C2.05 22.5 1.86 22.42 1.71 22.28C1.57 22.13 1.5 21.94 1.5 21.75L1.5 21C1.5 20.8 1.42 20.61 1.28 20.46C1.13 20.32 0.94 20.25 0.75 20.25C0.55 20.25 0.36 20.32 0.21 20.46C0.07 20.61 0 20.8 0 21L0 21.75C0 22.34 0.23 22.91 0.65 23.34C1.08 23.76 1.65 24 2.25 24C2.84 24 3.41 23.76 3.84 23.34C4.26 22.91 4.5 22.34 4.5 21.75L4.5 15.75C4.5 15.55 4.42 15.36 4.28 15.21C4.13 15.07 3.94 15 3.75 15ZM6 17.25C6 16.65 6.23 16.08 6.65 15.65C7.08 15.23 7.65 15 8.25 15C8.84 15 9.41 15.23 9.84 15.65C10.26 16.08 10.5 16.65 10.5 17.25C10.5 17.44 10.42 17.63 10.28 17.78C10.13 17.92 9.94 18 9.75 18C9.55 18 9.36 17.92 9.21 17.78C9.07 17.63 9 17.44 9 17.25C9 17.05 8.92 16.86 8.78 16.71C8.63 16.57 8.44 16.5 8.25 16.5C8.05 16.5 7.86 16.57 7.71 16.71C7.57 16.86 7.5 17.05 7.5 17.25L7.5 17.82C7.5 17.96 7.53 18.09 7.61 18.21C7.68 18.33 7.78 18.43 7.91 18.49L9.25 19.16C9.63 19.35 9.94 19.63 10.16 19.99C10.38 20.34 10.5 20.75 10.5 21.17L10.5 21.75C10.5 22.34 10.26 22.91 9.84 23.34C9.41 23.76 8.84 24 8.25 24C7.65 24 7.08 23.76 6.65 23.34C6.23 22.91 6 22.34 6 21.75C6 21.55 6.07 21.36 6.21 21.21C6.36 21.07 6.55 21 6.75 21C6.94 21 7.13 21.07 7.28 21.21C7.42 21.36 7.5 21.55 7.5 21.75C7.5 21.94 7.57 22.13 7.71 22.28C7.86 22.42 8.05 22.5 8.25 22.5C8.44 22.5 8.63 22.42 8.78 22.28C8.92 22.13 9 21.94 9 21.75L9 21.17C9 21.03 8.96 20.9 8.88 20.78C8.81 20.66 8.71 20.56 8.58 20.5L7.24 19.83C6.86 19.64 6.55 19.36 6.33 19C6.11 18.65 5.99 18.24 6 17.82L6 17.25Z" fill="#FFFFFF" fill-opacity="1.000000" fill-rule="nonzero"/>
</svg>
