<svg width="16.642487" height="26.196899" viewBox="0 0 16.6425 26.1969" fill="none" xmlns="http://www.w3.org/2000/svg" xmlns:xlink="http://www.w3.org/1999/xlink">
	<desc>
			Created with Pixso.
	</desc>
	<defs/>
	<path id="Vector" d="M14.05 0.2L2.58 0.2C1.95 0.2 1.35 0.45 0.9 0.9C0.45 1.35 0.2 1.95 0.2 2.58L0.2 23.6C0.2 24.24 0.45 24.84 0.9 25.29C1.35 25.74 1.95 25.99 2.58 25.99L14.05 25.99C14.68 25.99 15.29 25.74 15.73 25.29C16.18 24.84 16.43 24.24 16.44 23.6L16.44 2.58C16.43 1.95 16.18 1.35 15.73 0.9C15.29 0.45 14.68 0.2 14.05 0.2ZM1.15 4.97L15.48 4.97L15.48 21.21L1.15 21.21L1.15 4.97ZM2.58 1.15L14.05 1.15C14.43 1.15 14.79 1.3 15.06 1.57C15.33 1.84 15.48 2.2 15.48 2.58L15.48 4.02L1.15 4.02L1.15 2.58C1.15 2.2 1.3 1.84 1.57 1.57C1.84 1.3 2.2 1.15 2.58 1.15ZM14.05 25.04L2.58 25.04C2.2 25.04 1.84 24.89 1.57 24.62C1.3 24.35 1.15 23.98 1.15 23.6L1.15 22.17L15.48 22.17L15.48 23.6C15.48 23.98 15.33 24.35 15.06 24.62C14.79 24.89 14.43 25.04 14.05 25.04Z" fill="#FFFFFF" fill-opacity="1.000000" fill-rule="nonzero"/>
	<path id="Vector" d="M14.05 0L2.58 0L2.58 0Q2.33 0 2.08 0.05Q1.83 0.1 1.59 0.2Q1.36 0.29 1.15 0.43Q0.94 0.57 0.76 0.76Q0.57 0.94 0.43 1.15Q0.29 1.36 0.2 1.59Q0.1 1.83 0.05 2.08Q0 2.33 0 2.58L0 23.6Q0 23.87 0.05 24.12Q0.1 24.36 0.2 24.59Q0.29 24.83 0.43 25.04Q0.57 25.25 0.76 25.43Q0.94 25.61 1.15 25.75Q1.36 25.89 1.59 25.99Q1.83 26.09 2.08 26.14Q2.33 26.19 2.58 26.19L14.05 26.19Q14.31 26.19 14.57 26.14Q14.81 26.09 15.04 25.99Q15.28 25.89 15.48 25.75Q15.69 25.61 15.88 25.43Q16.06 25.25 16.2 25.04Q16.34 24.83 16.44 24.59Q16.54 24.36 16.59 24.11Q16.64 23.86 16.64 23.6L16.64 2.58Q16.64 2.32 16.58 2.07Q16.53 1.83 16.44 1.59Q16.34 1.36 16.2 1.15Q16.06 0.94 15.88 0.76Q15.69 0.57 15.48 0.43Q15.28 0.29 15.04 0.2Q14.8 0.1 14.55 0.05Q14.31 0 14.05 0ZM14.05 0.2L2.58 0.2C1.95 0.2 1.35 0.45 0.9 0.9C0.45 1.35 0.2 1.95 0.2 2.58L0.2 23.6C0.2 24.24 0.45 24.84 0.9 25.29C1.35 25.74 1.95 25.99 2.58 25.99L14.05 25.99C14.68 25.99 15.29 25.74 15.73 25.29C16.18 24.84 16.43 24.24 16.44 23.6L16.44 2.58C16.43 1.95 16.18 1.35 15.73 0.9C15.29 0.45 14.68 0.2 14.05 0.2ZM2.58 1.15L14.05 1.15C14.43 1.15 14.79 1.3 15.06 1.57C15.33 1.84 15.48 2.2 15.48 2.58L15.48 4.02L1.15 4.02L1.15 2.58C1.15 2.2 1.3 1.84 1.57 1.57C1.84 1.3 2.2 1.15 2.58 1.15ZM1.35 3.82L15.28 3.82L15.28 2.58Q15.28 2.46 15.26 2.34Q15.24 2.22 15.19 2.11Q15.14 2 15.07 1.9Q15.01 1.8 14.92 1.71Q14.83 1.62 14.73 1.56Q14.63 1.49 14.52 1.44Q14.41 1.4 14.29 1.37Q14.17 1.35 14.05 1.35L2.58 1.35Q2.46 1.35 2.34 1.37Q2.23 1.4 2.11 1.44Q2 1.49 1.9 1.56Q1.8 1.62 1.71 1.71Q1.62 1.8 1.56 1.9Q1.49 2 1.44 2.11Q1.4 2.23 1.37 2.34Q1.35 2.46 1.35 2.58L1.35 3.82ZM15.48 4.97L1.15 4.97L1.15 21.21L15.48 21.21L15.48 4.97ZM15.28 5.17L15.28 21.01L1.35 21.01L1.35 5.17L15.28 5.17ZM14.05 25.04L2.58 25.04C2.2 25.04 1.84 24.89 1.57 24.62C1.3 24.35 1.15 23.98 1.15 23.6L1.15 22.17L1.35 22.17L15.28 22.17L15.48 22.17L15.48 23.6C15.48 23.98 15.33 24.35 15.06 24.62C14.79 24.89 14.43 25.04 14.05 25.04ZM15.28 22.37L15.28 23.6Q15.28 23.73 15.26 23.84Q15.24 23.96 15.19 24.08Q15.14 24.19 15.07 24.29Q15.01 24.39 14.92 24.48Q14.83 24.56 14.73 24.63Q14.63 24.7 14.52 24.74Q14.41 24.79 14.29 24.81Q14.17 24.84 14.05 24.84L2.58 24.84Q2.46 24.84 2.34 24.81Q2.23 24.79 2.11 24.74Q2 24.7 1.9 24.63Q1.8 24.56 1.71 24.48Q1.62 24.39 1.56 24.29Q1.49 24.19 1.44 24.08Q1.4 23.96 1.37 23.84Q1.35 23.73 1.35 23.6L1.35 22.37L15.28 22.37Z" fill="#FFFFFF" fill-opacity="1.000000" fill-rule="evenodd"/>
</svg>
