<svg width="25.320007" height="27.167358" viewBox="0 0 25.32 27.1674" fill="none" xmlns="http://www.w3.org/2000/svg" xmlns:xlink="http://www.w3.org/1999/xlink">
	<desc>
			Created with Pixso.
	</desc>
	<defs/>
	<path id="Vector" d="M12.66 27.16C10.39 27.16 8.36 25.12 7.09 21.63C6.99 21.36 7.13 21.05 7.41 20.97C7.68 20.86 7.98 21.01 8.08 21.28C9.18 24.31 10.89 26.12 12.66 26.12C13.93 26.12 15.2 25.19 16.21 23.51C16.29 23.39 16.4 23.31 16.54 23.28C16.67 23.25 16.81 23.27 16.93 23.34C17.04 23.41 17.13 23.53 17.16 23.66C17.2 23.79 17.18 23.93 17.11 24.05C15.89 26.06 14.31 27.16 12.66 27.16ZM17.97 21.35C17.92 21.35 17.86 21.34 17.82 21.32C17.53 21.23 17.41 20.94 17.46 20.66C18.09 18.75 18.39 16.54 18.39 14.26C18.39 9.03 16.69 4.4 14.27 2.9C13.93 3.39 13.33 3.77 12.66 3.77C11.62 3.77 10.77 2.93 10.77 1.88C10.77 0.84 11.62 0 12.66 0C13.7 0 14.56 0.82 14.57 1.86C17.45 3.39 19.45 8.43 19.45 14.26C19.45 16.64 19.11 18.96 18.47 20.98C18.4 21.2 18.2 21.35 17.97 21.35ZM12.66 1.04C12.19 1.04 11.81 1.42 11.81 1.88C11.81 2.34 12.21 2.71 12.66 2.71C13.13 2.71 13.52 2.34 13.52 1.88C13.52 1.42 13.13 1.04 12.66 1.04ZM1.9 22.46C0.85 22.46 0 21.61 0 20.57C0 19.91 0.35 19.31 0.88 18.97C0.69 15.7 4.07 11.42 9.26 8.44C11.42 7.22 13.67 6.34 15.81 5.89C16.05 5.82 16.36 6 16.42 6.28C16.49 6.57 16.31 6.85 16.05 6.91C14.01 7.34 11.85 8.19 9.8 9.35C5.13 12.03 1.92 15.86 1.92 18.69C2.96 18.7 3.83 19.54 3.83 20.57C3.83 21.62 2.94 22.46 1.9 22.46ZM1.9 19.73C1.43 19.73 1.05 20.11 1.05 20.57C1.05 21.05 1.43 21.42 1.9 21.42C2.36 21.42 2.75 21.05 2.75 20.57C2.75 20.11 2.36 19.73 1.9 19.73ZM21.48 15.53C21.39 15.53 21.27 15.49 21.17 15.41C21.07 15.32 21 15.19 20.99 15.05C20.98 14.91 21.03 14.77 21.12 14.67C23.21 12.22 23.93 9.86 23.03 8.34C22.39 7.24 20.94 6.62 18.94 6.6C18.65 6.6 18.41 6.35 18.43 6.07C18.43 5.78 18.67 5.56 18.96 5.55C21.34 5.58 23.11 6.38 23.94 7.81C25.08 9.76 24.34 12.51 21.92 15.34C21.81 15.47 21.66 15.53 21.48 15.53ZM18.77 22.95C16.05 22.95 12.57 21.95 9.26 20.06C7.15 18.85 5.28 17.37 3.83 15.79C3.73 15.69 3.68 15.56 3.68 15.42C3.68 15.28 3.73 15.15 3.83 15.05C4.07 14.86 4.4 14.87 4.6 15.09C5.97 16.58 7.76 17.99 9.79 19.15C14.29 21.73 19.13 22.58 21.69 21.35C21.58 21.12 21.48 20.85 21.48 20.57C21.48 19.53 22.37 18.69 23.41 18.69C24.46 18.69 25.32 19.53 25.32 20.57C25.31 20.91 25.22 21.25 25.05 21.54C24.87 21.83 24.62 22.07 24.33 22.23C24.03 22.4 23.69 22.48 23.35 22.46C23.01 22.45 22.68 22.35 22.39 22.16C21.44 22.69 20.21 22.95 18.77 22.95ZM22.84 21.23C23.02 21.34 23.21 21.42 23.41 21.42C23.64 21.42 23.85 21.33 24.01 21.17C24.17 21.01 24.26 20.8 24.26 20.57C24.26 20.35 24.17 20.14 24.01 19.98C23.85 19.82 23.64 19.73 23.41 19.73C22.94 19.73 22.57 20.11 22.57 20.57C22.57 20.76 22.64 20.94 22.75 21.09C22.8 21.12 22.84 21.17 22.84 21.23ZM2.41 13.58C2.24 13.58 2.06 13.47 1.96 13.31C0.74 11.2 0.54 9.25 1.38 7.79C2.52 5.84 5.29 5.1 9 5.77C9.26 5.82 9.48 6.11 9.42 6.38C9.38 6.66 9.11 6.85 8.82 6.79C5.62 6.23 3.15 6.79 2.29 8.32C1.64 9.44 1.84 11.01 2.87 12.78C3.01 13.04 2.93 13.35 2.67 13.5C2.59 13.54 2.51 13.58 2.41 13.58ZM12.94 15.48C12.62 15.55 12.28 15.49 12 15.31C11.72 15.14 11.52 14.85 11.45 14.53C11.37 14.21 11.43 13.87 11.61 13.59C11.79 13.31 12.07 13.11 12.4 13.04C13.08 12.9 13.76 13.32 13.89 14C14.01 14.67 13.61 15.33 12.94 15.48Z" fill="#FFFFFF" fill-opacity="1.000000" fill-rule="nonzero"/>
</svg>
